<svg width="15" height="17" viewBox="0 0 15 17" fill="none" xmlns="http://www.w3.org/2000/svg">
<rect width="15" height="17" rx="7.5" fill="#D9D9D9"/>
<path d="M4.275 11.725C4.56495 12.0149 5.03505 12.0149 5.325 11.725L6.15 10.9C6.89558 10.1544 8.10442 10.1544 8.85 10.9L9.675 11.725C9.96495 12.0149 10.4351 12.0149 10.725 11.725C11.0149 11.4351 11.0149 10.9649 10.725 10.675L9.9 9.85C9.15442 9.10442 9.15442 7.89558 9.9 7.15L10.725 6.325C11.0149 6.03505 11.0149 5.56495 10.725 5.275C10.4351 4.98505 9.96495 4.98505 9.675 5.275L8.85 6.1C8.10442 6.84558 6.89558 6.84558 6.15 6.1L5.325 5.275C5.03505 4.98505 4.56495 4.98505 4.275 5.275C3.98505 5.56495 3.98505 6.03505 4.275 6.325L5.1 7.15C5.84558 7.89558 5.84558 9.10441 5.1 9.85L4.275 10.675C3.98505 10.9649 3.98505 11.4351 4.275 11.725ZM7.5 16C6.4625 16 5.4875 15.8031 4.575 15.4094C3.6625 15.0156 2.86875 14.4813 2.19375 13.8063C1.51875 13.1313 0.984375 12.3375 0.590625 11.425C0.196875 10.5125 0 9.5375 0 8.5C0 7.4625 0.196875 6.4875 0.590625 5.575C0.984375 4.6625 1.51875 3.86875 2.19375 3.19375C2.86875 2.51875 3.6625 1.98438 4.575 1.59063C5.4875 1.19687 6.4625 1 7.5 1C8.5375 1 9.5125 1.19687 10.425 1.59063C11.3375 1.98438 12.1313 2.51875 12.8063 3.19375C13.4813 3.86875 14.0156 4.6625 14.4094 5.575C14.8031 6.4875 15 7.4625 15 8.5C15 9.5375 14.8031 10.5125 14.4094 11.425C14.0156 12.3375 13.4813 13.1313 12.8063 13.8063C12.1313 14.4813 11.3375 15.0156 10.425 15.4094C9.5125 15.8031 8.5375 16 7.5 16Z" fill="#007CFF"/>
</svg>
