<svg width="24" height="24" viewBox="0 0 24 24" fill="none" xmlns="http://www.w3.org/2000/svg">
<mask id="mask0_2113_1528" style="mask-type:alpha" maskUnits="userSpaceOnUse" x="0" y="0" width="24" height="24">
<rect width="24" height="24" rx="8" fill="#D9D9D9"/>
</mask>
<g mask="url(#mask0_2113_1528)">
<path d="M7.70098 16.3C8.08758 16.6866 8.71438 16.6866 9.10098 16.3L10.201 15.2C11.1951 14.2059 12.8069 14.2059 13.801 15.2L14.901 16.3C15.2876 16.6866 15.9144 16.6866 16.301 16.3V16.3C16.6876 15.9134 16.6876 15.2866 16.301 14.9L15.201 13.8C14.2069 12.8059 14.2069 11.1941 15.201 10.2L16.301 9.1C16.6876 8.7134 16.6876 8.0866 16.301 7.7V7.7C15.9144 7.3134 15.2876 7.3134 14.901 7.7L13.801 8.8C12.8069 9.79411 11.1951 9.79411 10.201 8.8L9.10098 7.7C8.71438 7.3134 8.08758 7.3134 7.70098 7.7V7.7C7.31438 8.0866 7.31438 8.7134 7.70098 9.1L8.80098 10.2C9.79509 11.1941 9.79509 12.8059 8.80098 13.8L7.70098 14.9C7.31438 15.2866 7.31438 15.9134 7.70098 16.3V16.3ZM12.001 22C10.6176 22 9.31764 21.7375 8.10098 21.2125C6.88431 20.6875 5.82598 19.975 4.92598 19.075C4.02598 18.175 3.31348 17.1167 2.78848 15.9C2.26348 14.6833 2.00098 13.3833 2.00098 12C2.00098 10.6167 2.26348 9.31667 2.78848 8.1C3.31348 6.88333 4.02598 5.825 4.92598 4.925C5.82598 4.025 6.88431 3.3125 8.10098 2.7875C9.31764 2.2625 10.6176 2 12.001 2C13.3843 2 14.6843 2.2625 15.901 2.7875C17.1176 3.3125 18.176 4.025 19.076 4.925C19.976 5.825 20.6885 6.88333 21.2135 8.1C21.7385 9.31667 22.001 10.6167 22.001 12C22.001 13.3833 21.7385 14.6833 21.2135 15.9C20.6885 17.1167 19.976 18.175 19.076 19.075C18.176 19.975 17.1176 20.6875 15.901 21.2125C14.6843 21.7375 13.3843 22 12.001 22Z" fill="#007CFF"/>
</g>
</svg>
