<svg width="24" height="24" viewBox="0 0 24 24" fill="none" xmlns="http://www.w3.org/2000/svg">
<mask id="mask0_2498_1358" style="mask-type:alpha" maskUnits="userSpaceOnUse" x="0" y="0" width="24" height="24">
<rect width="24" height="24" rx="12" fill="#D9D9D9"/>
</mask>
<g mask="url(#mask0_2498_1358)">
<path d="M7.99902 14C7.71569 14 7.47819 13.9042 7.28652 13.7125C7.09486 13.5208 6.99902 13.2833 6.99902 13C6.99902 12.7167 7.09486 12.4792 7.28652 12.2875C7.47819 12.0958 7.71569 12 7.99902 12C8.28236 12 8.51986 12.0958 8.71152 12.2875C8.90319 12.4792 8.99902 12.7167 8.99902 13C8.99902 13.2833 8.90319 13.5208 8.71152 13.7125C8.51986 13.9042 8.28236 14 7.99902 14ZM11.999 14C11.7157 14 11.4782 13.9042 11.2865 13.7125C11.0949 13.5208 10.999 13.2833 10.999 13C10.999 12.7167 11.0949 12.4792 11.2865 12.2875C11.4782 12.0958 11.7157 12 11.999 12C12.2824 12 12.5199 12.0958 12.7115 12.2875C12.9032 12.4792 12.999 12.7167 12.999 13C12.999 13.2833 12.9032 13.5208 12.7115 13.7125C12.5199 13.9042 12.2824 14 11.999 14ZM15.999 14C15.7157 14 15.4782 13.9042 15.2865 13.7125C15.0949 13.5208 14.999 13.2833 14.999 13C14.999 12.7167 15.0949 12.4792 15.2865 12.2875C15.4782 12.0958 15.7157 12 15.999 12C16.2824 12 16.5199 12.0958 16.7115 12.2875C16.9032 12.4792 16.999 12.7167 16.999 13C16.999 13.2833 16.9032 13.5208 16.7115 13.7125C16.5199 13.9042 16.2824 14 15.999 14ZM4.99902 22C4.44902 22 3.97819 21.8042 3.58652 21.4125C3.19486 21.0208 2.99902 20.55 2.99902 20V6C2.99902 5.45 3.19486 4.97917 3.58652 4.5875C3.97819 4.19583 4.44902 4 4.99902 4V4C5.55131 4 5.99902 3.55228 5.99902 3V3C5.99902 2.44772 6.44674 2 6.99902 2V2C7.55131 2 7.99902 2.44772 7.99902 3V3C7.99902 3.55228 8.44674 4 8.99902 4H14.999C15.5513 4 15.999 3.55228 15.999 3V3C15.999 2.44772 16.4467 2 16.999 2V2C17.5513 2 17.999 2.44772 17.999 3V3C17.999 3.55228 18.4467 4 18.999 4V4C19.549 4 20.0199 4.19583 20.4115 4.5875C20.8032 4.97917 20.999 5.45 20.999 6V20C20.999 20.55 20.8032 21.0208 20.4115 21.4125C20.0199 21.8042 19.549 22 18.999 22H4.99902ZM4.99902 15C4.99902 17.7614 7.2376 20 9.99902 20H13.999C16.7604 20 18.999 17.7614 18.999 15V15C18.999 12.2386 16.7604 10 13.999 10H9.99902C7.2376 10 4.99902 12.2386 4.99902 15V15ZM4.99902 7C4.99902 7.55228 5.44674 8 5.99902 8H17.999C18.5513 8 18.999 7.55228 18.999 7V7C18.999 6.44772 18.5513 6 17.999 6H5.99902C5.44674 6 4.99902 6.44772 4.99902 7V7Z" fill="#ABABAB"/>
</g>
</svg>
