<svg width="24" height="24" viewBox="0 0 24 24" fill="none" xmlns="http://www.w3.org/2000/svg">
<mask id="mask0_2091_1409" style="mask-type:alpha" maskUnits="userSpaceOnUse" x="0" y="0" width="24" height="24">
<rect width="24" height="24" fill="#D9D9D9"/>
</mask>
<g mask="url(#mask0_2091_1409)">
<path d="M7.12158 22C6.57158 22 6.10075 21.8042 5.70908 21.4125C5.31742 21.0208 5.12158 20.55 5.12158 20C5.12158 19.45 5.31742 18.9792 5.70908 18.5875C6.10075 18.1958 6.57158 18 7.12158 18C7.67158 18 8.14242 18.1958 8.53408 18.5875C8.92575 18.9792 9.12158 19.45 9.12158 20C9.12158 20.55 8.92575 21.0208 8.53408 21.4125C8.14242 21.8042 7.67158 22 7.12158 22ZM17.1216 22C16.5716 22 16.1008 21.8042 15.7091 21.4125C15.3174 21.0208 15.1216 20.55 15.1216 20C15.1216 19.45 15.3174 18.9792 15.7091 18.5875C16.1008 18.1958 16.5716 18 17.1216 18C17.6716 18 18.1424 18.1958 18.5341 18.5875C18.9258 18.9792 19.1216 19.45 19.1216 20C19.1216 20.55 18.9258 21.0208 18.5341 21.4125C18.1424 21.8042 17.6716 22 17.1216 22ZM6.27158 6L8.67158 11H15.6716L18.4216 6H6.27158ZM5.32158 4H20.0716C20.4549 4 20.7466 4.17083 20.9466 4.5125C21.1466 4.85417 21.1549 5.2 20.9716 5.55L17.4216 11.95C17.2383 12.2833 16.9924 12.5417 16.6841 12.725C16.3758 12.9083 16.0383 13 15.6716 13H8.22158L7.12158 15H19.1216V17H7.12158C6.37158 17 5.80492 16.6708 5.42158 16.0125C5.03825 15.3542 5.02158 14.7 5.37158 14.05L6.72158 11.6L3.12158 4H1.12158V2H4.37158L5.32158 4Z" fill="#ABABAB"/>
</g>
</svg>
