<svg width="24" height="24" viewBox="0 0 24 24" fill="none" xmlns="http://www.w3.org/2000/svg">
<mask id="mask0_2498_1349" style="mask-type:alpha" maskUnits="userSpaceOnUse" x="0" y="0" width="24" height="24">
<rect width="24" height="24" rx="8" fill="#D9D9D9"/>
</mask>
<g mask="url(#mask0_2498_1349)">
<path d="M8.475 13.925C9.6486 15.0986 11.5514 15.0986 12.725 13.925L16.95 9.7C17.3366 9.3134 17.3366 8.6866 16.95 8.3V8.3C16.5634 7.9134 15.9366 7.9134 15.55 8.3L12.025 11.825C11.238 12.612 9.96201 12.612 9.175 11.825L8.45 11.1C8.0634 10.7134 7.4366 10.7134 7.05 11.1V11.1C6.6634 11.4866 6.6634 12.1134 7.05 12.5L8.475 13.925ZM5 21C4.45 21 3.97917 20.8042 3.5875 20.4125C3.19583 20.0208 3 19.55 3 19V5C3 4.45 3.19583 3.97917 3.5875 3.5875C3.97917 3.19583 4.45 3 5 3H7.35909C8.46382 3 9.39153 2.19627 10.2875 1.55V1.55C10.7958 1.18333 11.3667 1 12 1C12.6333 1 13.2042 1.18333 13.7125 1.55V1.55C14.6085 2.19627 15.5362 3 16.6409 3H19C19.55 3 20.0208 3.19583 20.4125 3.5875C20.8042 3.97917 21 4.45 21 5V19C21 19.55 20.8042 20.0208 20.4125 20.4125C20.0208 20.8042 19.55 21 19 21H5ZM5 12C5 15.866 8.13401 19 12 19V19C15.866 19 19 15.866 19 12V12C19 8.13401 15.866 5 12 5V5C8.13401 5 5 8.13401 5 12V12ZM12 4.25C12.2167 4.25 12.3958 4.17917 12.5375 4.0375C12.6792 3.89583 12.75 3.71667 12.75 3.5C12.75 3.28333 12.6792 3.10417 12.5375 2.9625C12.3958 2.82083 12.2167 2.75 12 2.75C11.7833 2.75 11.6042 2.82083 11.4625 2.9625C11.3208 3.10417 11.25 3.28333 11.25 3.5C11.25 3.71667 11.3208 3.89583 11.4625 4.0375C11.6042 4.17917 11.7833 4.25 12 4.25Z" fill="#ABABAB"/>
</g>
</svg>
