<svg width="24" height="24" viewBox="0 0 24 24" fill="none" xmlns="http://www.w3.org/2000/svg">
<mask id="mask0_2498_1346" style="mask-type:alpha" maskUnits="userSpaceOnUse" x="0" y="0" width="24" height="24">
<rect width="24" height="24" rx="8" fill="#D9D9D9"/>
</mask>
<g mask="url(#mask0_2498_1346)">
<path d="M5.00049 21.0001C4.45049 21.0001 3.97965 20.8043 3.58799 20.4126C3.19632 20.0209 3.00049 19.5501 3.00049 19.0001V5.0001C3.00049 4.4501 3.19632 3.97926 3.58799 3.5876C3.97965 3.19593 4.45049 3.0001 5.00049 3.0001H11.5113C12.4022 3.0001 12.8483 4.07724 12.2184 4.7072V4.7072C12.0308 4.89474 11.7765 5.0001 11.5113 5.0001H9.8972C7.19282 5.0001 5.00049 7.19243 5.00049 9.89681V12.0001C5.00049 15.8661 8.13449 19.0001 12.0005 19.0001H14.0861C16.8002 19.0001 19.0005 16.7998 19.0005 14.0857V12.4643C19.0005 12.1991 19.1058 11.9447 19.2934 11.7572V11.7572C19.9233 11.1272 21.0005 11.5734 21.0005 12.4643V19.0001C21.0005 19.5501 20.8047 20.0209 20.413 20.4126C20.0213 20.8043 19.5505 21.0001 19.0005 21.0001H5.00049ZM12.004 15.0001C10.3452 15.0001 9.00049 13.6542 9.00049 11.9954V11.9954C9.00049 11.1984 9.31711 10.4335 9.88069 9.86989L18.1755 1.5751C18.3755 1.3751 18.6005 1.2251 18.8505 1.1251C19.1005 1.0251 19.3505 0.975098 19.6005 0.975098C19.8672 0.975098 20.1213 1.0251 20.363 1.1251C20.6047 1.2251 20.8255 1.3751 21.0255 1.5751L22.4255 3.0001C22.6088 3.2001 22.7505 3.42093 22.8505 3.6626C22.9505 3.90426 23.0005 4.1501 23.0005 4.4001C23.0005 4.6501 22.9547 4.89593 22.863 5.1376C22.7713 5.37926 22.6255 5.6001 22.4255 5.8001L14.1307 14.1175C13.5672 14.6825 12.802 15.0001 12.004 15.0001V15.0001ZM11.0005 12.0101C11.0005 12.5569 11.4437 13.0001 11.9904 13.0001V13.0001C12.253 13.0001 12.5048 12.8958 12.6904 12.7101L17.5005 7.9001C17.8871 7.5135 17.8871 6.8867 17.5005 6.5001V6.5001V6.5001C17.098 6.11153 16.4584 6.11714 16.0629 6.51271L11.2956 11.28C11.1066 11.4689 11.0005 11.7252 11.0005 11.9925V12.0101Z" fill="#ABABAB"/>
</g>
</svg>
