<svg width="25" height="24" viewBox="0 0 25 24" fill="none" xmlns="http://www.w3.org/2000/svg">
<mask id="mask0_2498_1372" style="mask-type:alpha" maskUnits="userSpaceOnUse" x="0" y="0" width="25" height="24">
<rect x="0.399902" width="24" height="24" rx="8" fill="#D9D9D9"/>
</mask>
<g mask="url(#mask0_2498_1372)">
<path d="M11.3994 16C11.3994 16.5523 11.8471 17 12.3994 17C12.9517 17 13.3994 16.5523 13.3994 16V15C13.3994 13.8954 14.2948 13 15.3994 13H16.3994C16.9517 13 17.3994 12.5523 17.3994 12C17.3994 11.4477 16.9517 11 16.3994 11H15.3994C14.2948 11 13.3994 10.1046 13.3994 9V8C13.3994 7.44772 12.9517 7 12.3994 7C11.8471 7 11.3994 7.44772 11.3994 8V9C11.3994 10.1046 10.504 11 9.39941 11H8.39941C7.84713 11 7.39941 11.4477 7.39941 12C7.39941 12.5523 7.84713 13 8.39941 13H9.39941C10.504 13 11.3994 13.8954 11.3994 15V16ZM12.3994 22C11.0161 22 9.71608 21.7375 8.49941 21.2125C7.28275 20.6875 6.22441 19.975 5.32441 19.075C4.42441 18.175 3.71191 17.1167 3.18691 15.9C2.66191 14.6833 2.39941 13.3833 2.39941 12C2.39941 10.6167 2.66191 9.31667 3.18691 8.1C3.71191 6.88333 4.42441 5.825 5.32441 4.925C6.22441 4.025 7.28275 3.3125 8.49941 2.7875C9.71608 2.2625 11.0161 2 12.3994 2C13.7827 2 15.0827 2.2625 16.2994 2.7875C17.5161 3.3125 18.5744 4.025 19.4744 4.925C20.3744 5.825 21.0869 6.88333 21.6119 8.1C22.1369 9.31667 22.3994 10.6167 22.3994 12C22.3994 13.3833 22.1369 14.6833 21.6119 15.9C21.0869 17.1167 20.3744 18.175 19.4744 19.075C18.5744 19.975 17.5161 20.6875 16.2994 21.2125C15.0827 21.7375 13.7827 22 12.3994 22ZM12.3994 20C14.6327 20 16.5244 19.225 18.0744 17.675C19.6244 16.125 20.3994 14.2333 20.3994 12C20.3994 9.76667 19.6244 7.875 18.0744 6.325C16.5244 4.775 14.6327 4 12.3994 4C10.1661 4 8.27441 4.775 6.72441 6.325C5.17441 7.875 4.39941 9.76667 4.39941 12C4.39941 14.2333 5.17441 16.125 6.72441 17.675C8.27441 19.225 10.1661 20 12.3994 20Z" fill="#1C1B1F"/>
</g>
</svg>
