<svg width="24" height="24" viewBox="0 0 24 24" fill="none" xmlns="http://www.w3.org/2000/svg">
<mask id="mask0_2498_1365" style="mask-type:alpha" maskUnits="userSpaceOnUse" x="0" y="0" width="24" height="24">
<rect width="24" height="24" rx="8" fill="#D9D9D9"/>
</mask>
<g mask="url(#mask0_2498_1365)">
<path d="M3.56982 20C3.01982 20 2.54899 19.8042 2.15732 19.4125C1.76566 19.0208 1.56982 18.55 1.56982 18V6C1.56982 5.45 1.76566 4.97917 2.15732 4.5875C2.54899 4.19583 3.01982 4 3.56982 4H19.5698C20.1198 4 20.5907 4.19583 20.9823 4.5875C21.374 4.97917 21.5698 5.45 21.5698 6V18C21.5698 18.55 21.374 19.0208 20.9823 19.4125C20.5907 19.8042 20.1198 20 19.5698 20H3.56982ZM6.06982 14.425C6.06982 14.7426 6.32726 15 6.64482 15V15C6.96239 15 7.21982 14.7426 7.21982 14.425V9.68158C7.21982 9.30515 6.91467 9 6.53825 9V9C6.39619 9 6.25768 9.04439 6.14209 9.12696L4.99458 9.94661C4.75781 10.1157 4.69797 10.4422 4.85937 10.6843L4.95628 10.8297C5.0729 11.0046 5.31148 11.0477 5.48191 10.9246V10.9246C5.72714 10.7475 6.06982 10.9227 6.06982 11.2252V14.425ZM9.16983 14.2929C9.16983 14.6834 9.48641 15 9.87693 15H12.5698C12.846 15 13.0698 14.7761 13.0698 14.5V14.5C13.0698 14.2239 12.846 14 12.5698 14H10.7402C10.7271 14 10.7146 13.9948 10.7054 13.9856V13.9856C10.6859 13.9661 10.6863 13.9343 10.7063 13.9152C11.0398 13.5969 11.3152 13.3252 11.5323 13.1C11.7573 12.8667 11.9365 12.6833 12.0698 12.55C12.3698 12.25 12.5948 11.95 12.7448 11.65C12.8948 11.35 12.9698 11.0333 12.9698 10.7C12.9698 10.2167 12.7865 9.8125 12.4198 9.4875C12.0532 9.1625 11.5865 9 11.0198 9C10.5865 9 10.1948 9.125 9.84483 9.375C9.64225 9.51969 9.47597 9.68951 9.34598 9.88445C9.18426 10.127 9.33115 10.4345 9.6018 10.5428V10.5428C9.88677 10.6568 10.1974 10.4955 10.4233 10.2878C10.4424 10.2703 10.462 10.2535 10.4823 10.2375C10.6407 10.1125 10.8198 10.05 11.0198 10.05C11.2698 10.05 11.474 10.1167 11.6323 10.25C11.7907 10.3833 11.8698 10.55 11.8698 10.75C11.8698 10.9333 11.8365 11.1042 11.7698 11.2625C11.7032 11.4208 11.5532 11.6167 11.3198 11.85L9.37693 13.7929C9.24432 13.9255 9.16983 14.1054 9.16983 14.2929V14.2929ZM16.5698 15C17.1698 15 17.6532 14.8333 18.0198 14.5C18.3865 14.1667 18.5698 13.7333 18.5698 13.2C18.5698 12.9 18.4865 12.6333 18.3198 12.4C18.1576 12.1729 17.9323 11.9932 17.6439 11.8609C17.6293 11.8542 17.6198 11.8396 17.6198 11.8236V11.8236C17.6198 11.809 17.6277 11.7956 17.6402 11.7882C17.8639 11.6566 18.0404 11.4897 18.1698 11.2875C18.3032 11.0792 18.3698 10.8333 18.3698 10.55C18.3698 10.1 18.1948 9.72917 17.8448 9.4375C17.4948 9.14583 17.0532 9 16.5198 9C16.1032 9 15.7157 9.12083 15.3573 9.3625C15.1616 9.49453 15.0043 9.64274 14.8857 9.80711C14.721 10.0352 14.8684 10.3294 15.1296 10.4339V10.4339C15.4227 10.5511 15.7457 10.3688 15.9948 10.175V10.175C16.1448 10.0583 16.3198 10 16.5198 10C16.7365 10 16.9157 10.0625 17.0573 10.1875C17.199 10.3125 17.2698 10.4667 17.2698 10.65C17.2698 10.8833 17.1865 11.0667 17.0198 11.2C16.8532 11.3333 16.6365 11.4 16.3698 11.4V11.4C16.1213 11.4 15.9198 11.6015 15.9198 11.85V11.9C15.9198 12.1761 16.1437 12.4 16.4198 12.4V12.4C16.7532 12.4 17.0115 12.4667 17.1948 12.6C17.3782 12.7333 17.4698 12.9167 17.4698 13.15C17.4698 13.3667 17.3782 13.5542 17.1948 13.7125C17.0115 13.8708 16.8032 13.95 16.5698 13.95C16.2865 13.95 16.0698 13.8875 15.9198 13.7625C15.8733 13.7238 15.8285 13.6758 15.7852 13.6187C15.5918 13.3634 15.2744 13.1982 14.977 13.3171V13.3171C14.7146 13.4221 14.5597 13.7095 14.6851 13.9628C14.816 14.2273 14.9984 14.4439 15.2323 14.6125C15.5907 14.8708 16.0365 15 16.5698 15ZM3.56982 12C3.56982 15.3137 6.25612 18 9.56982 18H13.5698C16.8835 18 19.5698 15.3137 19.5698 12V12C19.5698 8.68629 16.8835 6 13.5698 6H9.56982C6.25612 6 3.56982 8.68629 3.56982 12V12Z" fill="#ABABAB"/>
</g>
</svg>
