<svg width="24" height="24" viewBox="0 0 24 24" fill="none" xmlns="http://www.w3.org/2000/svg">
<mask id="mask0_2498_1352" style="mask-type:alpha" maskUnits="userSpaceOnUse" x="0" y="0" width="24" height="24">
<rect width="24" height="24" rx="8" fill="#D9D9D9"/>
</mask>
<g mask="url(#mask0_2498_1352)">
<path d="M7.24254 20C6.61139 20 6.14828 19.4069 6.30136 18.7946L6.51493 17.9403C6.76132 16.9547 6.0159 16 5 16H4.28078C3.63021 16 3.15285 15.3886 3.31063 14.7575V14.7575C3.42193 14.3123 3.82191 14 4.28078 14H5.93845C6.85618 14 7.65615 13.3754 7.87873 12.4851L8.01493 11.9403C8.26132 10.9547 7.5159 10 6.5 10H5.78078C5.13021 10 4.65285 9.38861 4.81063 8.75746V8.75746C4.92193 8.3123 5.32191 8 5.78078 8H7C8.17541 8 9.19999 7.20003 9.48507 6.05971L9.81629 4.73485C9.92426 4.30297 10.3123 4 10.7575 4V4C11.3886 4 11.8517 4.59313 11.6986 5.20544L11.5 6C11.246 7.0159 12.0144 8 13.0616 8H13.4851C14.3754 8 15.1515 7.39405 15.3674 6.5303L15.8163 4.73485C15.9243 4.30297 16.3123 4 16.7575 4V4C17.3886 4 17.8517 4.59313 17.6986 5.20544L17.4851 6.05972C17.2387 7.04528 17.9841 8 19 8H19.7192C20.3698 8 20.8472 8.61139 20.6894 9.24254V9.24254C20.5781 9.6877 20.1781 10 19.7192 10H18.0616C17.1438 10 16.3439 10.6246 16.1213 11.5149L15.9851 12.0597C15.7387 13.0453 16.4841 14 17.5 14H18.2192C18.8698 14 19.3472 14.6114 19.1894 15.2425V15.2425C19.0781 15.6877 18.6781 16 18.2192 16H17C15.8246 16 14.8 16.8 14.5149 17.9403L14.1837 19.2652C14.0757 19.697 13.6877 20 13.2425 20V20C12.6114 20 12.1483 19.4069 12.3014 18.7946L12.5 18C12.754 16.9841 11.9856 16 10.9384 16H10.5149C9.6246 16 8.84851 16.6059 8.63258 17.4697L8.18371 19.2652C8.07574 19.697 7.6877 20 7.24254 20V20ZM10.1027 11.5891C9.79657 12.8137 10.7228 14 11.9851 14V14C12.8754 14 13.6515 13.3941 13.8674 12.5303L13.8973 12.4109C14.2034 11.1863 13.2772 10 12.0149 10V10C11.1246 10 10.3485 10.6059 10.1326 11.4697L10.1027 11.5891Z" fill="#ABABAB"/>
</g>
</svg>
